<svg id="Layer_1" data-name="Layer 1" xmlns="http://www.w3.org/2000/svg" viewBox="0 0 512 512"><title>ambulance-flat</title><rect width="512" height="512" fill="#c0ca33"/><g id="_4" data-name="4"><path d="M300.12,180.54c0,2.37,3.11,4.3,6.94,4.3h0c3.82,0,6.93-1.93,6.93-4.3V165.1c0-2.38-3.11-4.3-6.93-4.3h0c-3.83,0-6.94,1.92-6.94,4.3Z" fill="#fff"/><path d="M290.77,325.66a25.53,25.53,0,1,0,25.54-25.52A25.52,25.52,0,0,0,290.77,325.66Zm16.16.6a9.48,9.48,0,1,1,9.48,9.47A9.48,9.48,0,0,1,306.93,326.27Z" fill="#fff"/><path d="M143.83,325.68a25.53,25.53,0,1,0,25.52-25.54A25.53,25.53,0,0,0,143.83,325.68Zm16.55.31a9.48,9.48,0,1,1,9.49,9.47A9.48,9.48,0,0,1,160.38,326Z" fill="#fff"/><path d="M111.5,303.94c0,21.61,2.88,26.08,22.49,26.08h3.37a33.62,33.62,0,0,1-.47-5.29,32.59,32.59,0,1,1,65.17,0,32,32,0,0,1-.45,5.29h81.95a31.72,31.72,0,0,1-.41-4.89,32.6,32.6,0,1,1,64.76,5.11c21.28.74,52.59,2,52.59-16.52V263.2l-29.61-50.51c-17.77-33.41-33.68-39.12-53.3-39.12H150c-19.63,0-24.36,17.39-26.65,39.12ZM293.29,188l10.27-1.66s33.62-3.28,44.64,10.56l23.66,40.49s10.7,18.58-6.23,23.26H295.92Zm-91.44,50.62h19.24V219.58h21.76v19.06h19.23V260.4H242.85v19.4H221.09V260.4H201.85Z" fill="#fff"/></g></svg>